# xmcd
#
# Track frame offsets: 
#        150
#        16287
#        36132
#        58705
#
# Disc length: 977 seconds
#
# Revision: 0
# Processed by: cddbd v1.5.2PL0 Copyright (c) Steve Scherf et al.
# Submitted via: ExactAudioCopy v0.99pb3
#
DISCID=2a03cf04
DTITLE=Fields - 4 From The Village
DYEAR=2006
DGENRE=Black Lab
TTITLE0=Brittlesticks
TTITLE1=Heretic
TTITLE2=Isabel
TTITLE3=Roll Down The Hill
EXTD=
EXTT0=
EXTT1=
EXTT2=
EXTT3=
PLAYORDER=
